<svg id="Layer_1" data-name="Layer 1" xmlns="http://www.w3.org/2000/svg" viewBox="0 0 20 20"><defs><style>.cls-1{fill:#ff8162;}</style></defs><title>caravan_world</title><path class="cls-1" d="M10,2.4A8.6,8.6,0,1,1,1.4,11,8.61,8.61,0,0,1,10,2.4M10,1A10,10,0,1,0,20,11,10,10,0,0,0,10,1h0Z" transform="translate(0 -1)"/><path class="cls-1" d="M14.1,19.29a7.87,7.87,0,0,0,1-2.07c0.84-2.33,1.26-5.38-.36-5-1.42.32-3.17,0.66-4,.78s-1.85-.72-3-1.32S5.93,10,6.82,9.39s2.69,1.62,3.29.9,0.18-1.38,1-2.93,0.85-1.27,1.44-2.57a2,2,0,0,0,.05-1.66L11.75,2l-4.54.17L2.54,4.74v1.8A5,5,0,0,0,3.89,9.69c1.2,1.44,2.45,2,4.43,3.23S10,14.65,9.51,15.19s-1.61,2.51.18,3.59c1.38,0.83,1.54.13,1.3,0.85,0,0.05.44,0.16,0.42,0.21Z" transform="translate(0 -1)"/></svg>