<?xml version="1.0" encoding="utf-8"?>
<!-- Generator: Adobe Illustrator 19.2.0, SVG Export Plug-In . SVG Version: 6.00 Build 0)  -->
<svg version="1.1" id="Layer_1" xmlns="http://www.w3.org/2000/svg" xmlns:xlink="http://www.w3.org/1999/xlink" x="0px" y="0px"
	 viewBox="0 0 304.3 57.6" style="enable-background:new 0 0 304.3 57.6;" xml:space="preserve">
<style type="text/css">
	.st0{fill:#272525;}
	.st1{fill:none;}
	.st2{fill:#FF8162;}
</style>
<title>caravan_logo</title>
<path class="st0" d="M36.1,39v3.5c0,10.1-4.7,15.1-14.2,15.1h-7.7C4.7,57.6,0,52.5,0,42.5V15.1C0,5,4.7,0,14.2,0h7.7
	c9.5,0,14.2,5,14.2,15.1v5.6H24.2v-4.7c0-3.5-1.8-5.2-5.3-5.2h-2.4c-3.1,0-4.7,1.7-4.7,5.2v25.6c0,3.5,1.6,5.2,4.7,5.2h3
	c3.1,0,4.7-1.7,4.7-5.2V39H36.1z"/>
<path class="st0" d="M141.9,57.6H130V15.2C130,5.1,134.7,0,144.2,0h8.9c9.5,0,14.2,5.1,14.2,15.2v42.4h-11.9V38.4h-13.6L141.9,57.6
	L141.9,57.6z M155.5,27.7V15.9c0-3.5-1.7-5.2-5.2-5.2h-3.2c-3.5,0-5.2,1.7-5.2,5.2v11.7H155.5L155.5,27.7z"/>
<path class="st0" d="M215.1,0l-14.4,57.6h-14.1L172.3,0H184l9.7,36.6L203.3,0L215.1,0L215.1,0z"/>
<path class="st0" d="M231.9,57.6H220V15.2C220,5.1,224.8,0,234.2,0h8.9c9.5,0,14.2,5.1,14.2,15.2v42.4h-11.9V38.4h-13.6V57.6z
	 M245.5,27.7V15.9c0-3.5-1.7-5.2-5.2-5.2h-3.2c-3.5,0-5.2,1.7-5.2,5.2v11.7H245.5L245.5,27.7z"/>
<path class="st0" d="M292.5,31.7V0h11.9v57.6h-11.9V57l-12.8-26.3v26.9h-11.8V0h11.8L292.5,31.7z"/>
<path class="st1" d="M65,10.8h-3.2c-2.9,0-5.2,2.3-5.2,5.2v14.9h13.6V15.9C70.2,12.5,68.5,10.8,65,10.8z"/>
<path d="M121.2,9.6l-0.5-1c-1-2.5-3.4-4.1-6.1-4.1h-4.3l-2.1-1.7c-1-0.8-2.2-1.2-3.5-1.2h-5.6l-5.3-1.1c-0.6-0.1-1.3,0.3-1.4,0.9
	c-0.1,0.3,0,0.6,0.2,0.9l1.5,2.1c1.1,1.5,1.6,3.3,1.6,5.2v32c0,3.5-1.7,5.2-5.2,5.2h-3.2c-3.5,0-5.2-1.7-5.2-5.2v-0.8H70.3v1.6
	c0,10.1,4.7,15.2,14.2,15.2h8.9c9.5,0,14.2-5.1,14.2-15.2V21.4c0-7.2,4.6-8.4,7.6-8.4h3.8c1.3,0,2.5-1,2.5-2.4
	C121.4,10.3,121.3,9.9,121.2,9.6z"/>
<rect x="44.8" y="40.7" width="11.9" height="16.8"/>
<circle class="st2" cx="47.3" cy="35.6" r="2.5"/>
<circle class="st2" cx="57.6" cy="35.6" r="2.5"/>
<circle class="st2" cx="69.3" cy="35.6" r="2.5"/>
<circle class="st2" cx="79.6" cy="35.6" r="2.5"/>
<path class="st2" d="M82.1,15.2C82.1,5.1,77.4,0,67.9,0H59c-9.5,0-14.2,5.1-14.2,15.2v15.6h37.4L82.1,15.2z"/>
</svg>
