<svg id="Layer_1" data-name="Layer 1" xmlns="http://www.w3.org/2000/svg" viewBox="0 0 19.92 21.39"><defs><style>.cls-1,.cls-3{fill:#ff8162;}.cls-2,.cls-4{fill:none;stroke:#ff8162;stroke-miterlimit:10;}.cls-2{stroke-linecap:round;stroke-width:1.73px;}.cls-3{font-size:8.91px;font-family:Gotham;}.cls-4{stroke-width:1.73px;}</style></defs><title>caravan_calendar</title><path class="cls-1" d="M17.73,4.78a0.75,0.75,0,0,1,.75.75V19.77a0.75,0.75,0,0,1-.75.75H2.27a0.75,0.75,0,0,1-.75-0.75V5.53a0.75,0.75,0,0,1,.75-0.75H17.73m0-1.49H2.27A2.23,2.23,0,0,0,0,5.53V19.77A2.23,2.23,0,0,0,2.27,22H17.73A2.23,2.23,0,0,0,20,19.77V5.53A2.23,2.23,0,0,0,17.73,3.3h0Z" transform="translate(-0.04 -0.61)"/><line class="cls-2" x1="4.45" y1="0.87" x2="4.45" y2="5.44"/><line class="cls-2" x1="15.1" y1="0.87" x2="15.1" y2="5.44"/><text class="cls-3" transform="translate(6.37 17.08)">11</text><line class="cls-4" y1="7.37" x2="19.92" y2="7.37"/></svg>