<svg id="Layer_1" data-name="Layer 1" xmlns="http://www.w3.org/2000/svg" viewBox="0 0 798.33 151"><defs><style>.cls-1{fill:#242525;}.cls-2{fill:none;}.cls-3{fill:#ff8162;}</style></defs><title>caravan_logo</title><path class="cls-1" d="M97,102.36v9.07Q97,151,59.7,151H39.59q-37.3,0-37.3-39.57V39.57Q2.29,0,39.59,0H59.7Q97,0,97,39.57V54.15H65.86V41.84q0-13.62-13.95-13.62H45.75q-12.33,0-12.33,13.62v67.32q0,13.62,12.33,13.62h7.78q12.32,0,12.33-13.62v-6.8H97Z" transform="translate(-2.29 0)"/><path class="cls-1" d="M374.42,151H343.29V39.89Q343.29,0,380.59,0h23.35q37.29,0,37.3,39.89V151H410.1V100.79H374.42V151ZM410.1,72.57V41.84q0-13.62-13.62-13.62H388q-13.62,0-13.62,13.62V72.57H410.1Z" transform="translate(-2.29 0)"/><path class="cls-1" d="M566.44,0L528.81,151h-37L454.21,0H485l25.3,95.86L535.62,0h30.81Z" transform="translate(-2.29 0)"/><path class="cls-1" d="M610.55,151H579.41V39.89Q579.41,0,616.71,0h23.35q37.29,0,37.3,39.89V151H646.23V100.79H610.55V151Zm35.68-78.43V41.84q0-13.62-13.62-13.62h-8.43q-13.62,0-13.62,13.62V72.57h35.68Z" transform="translate(-2.29 0)"/><path class="cls-1" d="M769.48,83.3V0h31.14V151H769.48v-1.54l-33.41-69V151H704.93V0h31.14Z" transform="translate(-2.29 0)"/><path class="cls-2" d="M172.9,28.22h-8.43a13.62,13.62,0,0,0-13.62,13.62v39h35.73l0-39Q186.52,28.22,172.9,28.22Z" transform="translate(-2.29 0)"/><path class="cls-1" d="M320.16,25.21L319,22.37A17.43,17.43,0,0,0,302.9,11.7H291.5L286,7.17a14.39,14.39,0,0,0-9.13-3.27H262.2L248.39,1.13a3.07,3.07,0,0,0-3.12,4.78l3.88,5.53a23.92,23.92,0,0,1,4.34,13.76l-0.08,84q0,13.62-13.62,13.62h-8.43q-13.62,0-13.62-13.62v-2.35H186.6v4.29q0,39.9,37.3,39.89h23.35q37.3,0,37.3-39.89l0.08-54.86c0-18.81,12.1-22.18,19.8-22.18h9.84A6.38,6.38,0,0,0,320.16,25.21Z" transform="translate(-2.29 0)"/><rect class="cls-1" x="117.41" y="106.81" width="31.14" height="44.19"/><circle class="cls-3" cx="126.57" cy="88.04" r="9.16"/><circle class="cls-3" cx="164.02" cy="88.04" r="9.16"/><circle class="cls-3" cx="206.26" cy="88.04" r="9.16"/><path class="cls-3" d="M217.66,39.89Q217.66,0,180.36,0H157q-37.3,0-37.3,39.89v29h98Z" transform="translate(-2.29 0)"/></svg>